HIERARCHY
ROOT Pelvis
{
	OFFSET 0.000000 0.000000 0.000000
	CHANNELS 6 Xposition Yposition Zposition Xrotation Yrotation Zrotation
	JOINT LeftUpLeg_virtual
	{
		OFFSET 0.000000 0.000000 0.000000
		CHANNELS 3 Xrotation Yrotation Zrotation
		JOINT LeftUpLeg
		{
			OFFSET 8.479700 -4.795502 -0.379100
			CHANNELS 3 Xrotation Yrotation Zrotation
			JOINT LeftLeg
			{
				OFFSET 0.024144 -32.555107 0.112900
				CHANNELS 3 Xrotation Yrotation Zrotation
				JOINT LeftFoot
				{
					OFFSET -0.024144 -32.638630 -3.012600
					CHANNELS 3 Xrotation Yrotation Zrotation
					JOINT LeftToeBase
					{
						OFFSET 0.970200 -13.225400 11.864200
						CHANNELS 3 Xrotation Yrotation Zrotation
						End Site
						{
							OFFSET 0 0 0
						}
					}
				}
			}
		}
	}
	JOINT RightUpLeg_virtual
	{
		OFFSET 0.000000 0.000000 0.000000
		CHANNELS 3 Xrotation Yrotation Zrotation
		JOINT RightUpLeg
		{
			OFFSET -8.479700 -4.795502 -0.379100
			CHANNELS 3 Xrotation Yrotation Zrotation
			JOINT RightLeg
			{
				OFFSET -0.023144 -32.555092 0.112900
				CHANNELS 3 Xrotation Yrotation Zrotation
				JOINT RightFoot
				{
					OFFSET 0.023144 -32.638641 -3.012700
					CHANNELS 3 Xrotation Yrotation Zrotation
					JOINT RightToeBase
					{
						OFFSET -0.970200 -13.225400 11.864200
						CHANNELS 3 Xrotation Yrotation Zrotation
						End Site
						{
							OFFSET 0 0 0
						}
					}
				}
			}
		}
	}
	JOINT Hips_virtual
	{
		OFFSET 0.000000 0.000000 0.000000
		CHANNELS 3 Xrotation Yrotation Zrotation
		JOINT Hips
		{
			OFFSET -0.000000 -0.000000 -0.000000
			CHANNELS 3 Xrotation Yrotation Zrotation
			JOINT Spine
			{
				OFFSET 0.000000 7.722000 1.166200
				CHANNELS 3 Xrotation Yrotation Zrotation
				JOINT Spine1
				{
					OFFSET 0.000000 12.024101 0.248800
					CHANNELS 3 Xrotation Yrotation Zrotation
					JOINT Spine2
					{
						OFFSET 0.000000 11.502998 -0.491200
						CHANNELS 3 Xrotation Yrotation Zrotation
						JOINT Neck_virtual
						{
							OFFSET 0.000000 0.000000 0.000000
							CHANNELS 3 Xrotation Yrotation Zrotation
							JOINT Neck
							{
								OFFSET 0.000000 18.430702 -3.123100
								CHANNELS 3 Xrotation Yrotation Zrotation
								JOINT Head
								{
									OFFSET 0.000000 9.051102 1.034000
									CHANNELS 3 Xrotation Yrotation Zrotation
									End Site
									{
										OFFSET 0 0 0
									}
								}
							}
						}
						JOINT LeftShoulder_virtual
						{
							OFFSET 0.000000 0.000000 0.000000
							CHANNELS 3 Xrotation Yrotation Zrotation
							JOINT LeftShoulder
							{
								OFFSET 6.197800 13.665199 -4.064700
								CHANNELS 3 Xrotation Yrotation Zrotation
								JOINT LeftArm
								{
									OFFSET 7.778100 -0.187103 -1.709300
									CHANNELS 3 Xrotation Yrotation Zrotation
									JOINT LeftForeArm
									{
										OFFSET 22.049376 0.000000 0.000000
										CHANNELS 3 Xrotation Yrotation Zrotation
										JOINT LeftHand
										{
											OFFSET 23.009392 0.000000 0.000000
											CHANNELS 3 Xrotation Yrotation Zrotation
											End Site
											{
												OFFSET 0 0 0
											}
										}
									}
								}
							}
						}
						JOINT RightShoulder_virtual
						{
							OFFSET 0.000000 0.000000 0.000000
							CHANNELS 3 Xrotation Yrotation Zrotation
							JOINT RightShoulder
							{
								OFFSET -6.197800 13.665199 -4.064700
								CHANNELS 3 Xrotation Yrotation Zrotation
								JOINT RightArm
								{
									OFFSET -7.778100 -0.187103 -1.709300
									CHANNELS 3 Xrotation Yrotation Zrotation
									JOINT RightForeArm
									{
										OFFSET -22.049376 0.000000 0.000000
										CHANNELS 3 Xrotation Yrotation Zrotation
										JOINT RightHand
										{
											OFFSET -23.009392 0.000000 0.000000
											CHANNELS 3 Xrotation Yrotation Zrotation
											End Site
											{
												OFFSET 0 0 0
											}
										}
									}
								}
							}
						}
					}
				}
			}
		}
	}
}
MOTION
Frames: 5
Frame Time: 0.03333333
10.355463 78.891472 -0.607622 0.000000 0.000000 0.000000 4.156761 -46.515514 3.321071 -23.595732 15.431942 6.708527 35.774410 24.031160 3.409471 -10.081196 20.974645 -11.449759 0.000000 0.000000 0.000000 4.156761 -46.515514 3.321071 -27.487297 -38.269796 -23.237355 34.472081 -12.709600 -2.426076 -12.718860 -6.784571 12.348940 0.000000 0.000000 0.000000 4.156761 -46.515514 3.321071 0.000000 -0.000002 0.000000 10.008444 -5.756104 2.234025 3.056895 -1.359254 -0.696756 0.000000 0.000000 0.000000 -8.919071 -4.431369 -1.692197 -8.566929 -5.142922 -4.413992 0.000000 0.000000 0.000000 -8.919071 -4.431369 -1.692197 -0.955895 -3.915910 -2.538331 13.282560 6.823590 -62.263608 -0.021058 -42.236889 -0.010397 0.000000 0.000000 0.000000 -8.919071 -4.431369 -1.692197 -0.771035 0.311203 0.884124 3.113844 10.823038 70.823843 0.587843 47.471017 -0.255425 0.000000 0.000000 0.000000 
10.173482 78.891075 -0.796864 0.000000 0.000000 0.000000 3.940281 -48.234075 3.445690 -23.021270 15.781316 6.869622 35.743954 25.024107 3.369638 -10.105240 21.360863 -11.999566 0.000000 0.000000 0.000000 3.940281 -48.234075 3.445690 -27.741093 -37.998268 -23.556520 34.501256 -12.441453 -2.409249 -12.099667 -6.606081 12.164114 0.000000 0.000000 0.000000 3.940281 -48.234075 3.445690 0.000000 0.000000 0.000000 9.931835 -5.777735 2.167665 2.967048 -1.211545 -0.652809 0.000000 0.000000 0.000000 -9.020271 -4.366685 -1.601919 -8.544197 -4.716528 -4.541431 0.000000 0.000000 0.000000 -9.020271 -4.366685 -1.601919 -0.878239 -4.226527 -2.233010 13.531513 6.780614 -62.153028 -0.020251 -42.480628 -0.009955 0.000000 0.000000 0.000000 -9.020271 -4.366685 -1.601919 -0.846759 0.820774 0.916898 2.989854 9.871421 70.799528 0.512257 47.191082 -0.227948 0.000000 0.000000 0.000000 
9.980837 78.897469 -1.048056 0.000000 0.000000 0.000000 3.766503 -49.796348 3.491355 -23.031637 16.053712 7.291406 36.337139 26.207255 3.358954 -9.930770 21.223645 -12.230369 0.000000 0.000000 0.000000 3.766503 -49.796348 3.491355 -27.942797 -37.746904 -23.474168 34.813181 -11.740698 -2.375036 -12.495197 -5.994641 11.610194 0.000000 0.000000 0.000000 3.766503 -49.796348 3.491355 0.000000 0.000000 0.000000 9.862566 -5.731521 2.111708 2.895062 -1.071962 -0.562724 0.000000 0.000000 0.000000 -9.100047 -4.316068 -1.464394 -8.530110 -4.413677 -4.597616 0.000000 0.000000 0.000000 -9.100047 -4.316068 -1.464394 -0.800621 -4.500675 -1.933183 13.652193 6.640058 -62.119628 -0.019438 -42.599815 -0.009517 0.000000 0.000000 0.000000 -9.100047 -4.316068 -1.464394 -0.922053 1.266271 0.964827 2.893475 8.881783 70.701604 0.416260 46.895836 -0.192452 0.000000 0.000000 0.000000 
9.778172 78.909500 -1.358791 0.000000 0.000000 0.000000 3.610214 -51.190837 3.432862 -23.688151 16.136855 8.214688 37.767347 27.076875 3.323953 -8.772318 20.755746 -13.219305 0.000000 0.000000 0.000000 3.610214 -51.190837 3.432862 -27.875781 -37.433494 -23.026776 35.024541 -11.251640 -2.355017 -12.850481 -5.541751 11.083246 0.000000 0.000000 0.000000 3.610214 -51.190837 3.432862 0.000000 0.000000 0.000000 9.800563 -5.613193 2.064647 2.839593 -0.944623 -0.432633 0.000000 0.000000 0.000000 -9.159906 -4.281950 -1.286578 -8.508165 -4.235825 -4.578831 0.000000 0.000000 0.000000 -9.159906 -4.281950 -1.286578 -0.726153 -4.749507 -1.633529 13.608984 6.402163 -62.096651 -0.018537 -42.554080 -0.009087 0.000000 0.000000 0.000000 -9.159906 -4.281950 -1.286578 -0.995144 1.645282 1.031886 2.815502 7.867699 70.540083 0.304934 46.539478 -0.149990 0.000000 0.000000 0.000000 
9.567682 78.926796 -1.715630 0.000000 0.000000 0.000000 3.436262 -52.433925 3.257404 -24.485405 16.136658 9.335416 39.315211 27.605123 3.241407 -7.484193 20.046177 -14.076940 0.000000 0.000000 0.000000 3.436262 -52.433925 3.257404 -27.547920 -37.057222 -22.263471 35.138677 -10.953714 -2.347336 -13.165626 -5.234146 10.589106 0.000000 0.000000 0.000000 3.436262 -52.433925 3.257404 0.000000 -0.000002 0.000000 9.744773 -5.414908 2.019799 2.798251 -0.834751 -0.276275 0.000000 0.000000 0.000000 -9.202969 -4.266245 -1.083140 -8.468454 -4.171482 -4.485397 0.000000 0.000000 0.000000 -9.202969 -4.266245 -1.083140 -0.657698 -4.987812 -1.334226 13.409544 6.067827 -62.089937 -0.017614 -42.345380 -0.008639 0.000000 0.000000 0.000000 -9.202969 -4.266245 -1.083140 -1.064624 1.958808 1.120593 2.745208 6.847594 70.332261 0.188363 46.077972 -0.103771 0.000000 0.000000 0.000000 
